<?xml version="1.0" standalone="no"?>
<!DOCTYPE svg PUBLIC "-//W3C//DTD SVG 20010904//EN"
 "http://www.w3.org/TR/2001/REC-SVG-20010904/DTD/svg10.dtd">
<svg version="1.0" xmlns="http://www.w3.org/2000/svg"
 width="700.000000pt" height="700.000000pt" viewBox="0 0 700.000000 700.000000"
 preserveAspectRatio="xMidYMid meet">
<metadata>
Created by potrace 1.11, written by Peter Selinger 2001-2013
</metadata>
<g transform="translate(0.000000,700.000000) scale(0.100000,-0.100000)"
fill="#000000" stroke="none">
<path d="M3430 6082 c-40 -20 -80 -83 -80 -126 0 -53 37 -113 84 -135 23 -12
53 -21 66 -21 48 0 108 39 129 84 27 54 26 91 -2 141 -25 46 -75 75 -127 75
-19 0 -51 -8 -70 -18z"/>
<path d="M3440 5505 l0 -165 -90 0 c-108 0 -155 -19 -191 -77 -23 -37 -24 -45
-27 -305 l-3 -268 -364 0 c-343 0 -367 -1 -419 -20 -73 -28 -147 -99 -183
-175 l-28 -60 -3 -422 -3 -423 -197 0 c-245 -1 -285 -12 -331 -95 -14 -26 -16
-67 -16 -280 0 -240 1 -251 22 -285 12 -20 40 -46 61 -58 38 -21 52 -22 250
-22 l211 0 3 -427 c3 -416 4 -429 25 -476 31 -66 113 -150 176 -178 l52 -24
1115 0 1115 0 52 24 c63 28 145 112 176 178 21 47 22 60 25 476 l3 427 211 0
c198 0 212 1 250 22 21 12 49 38 61 58 21 34 22 45 22 285 0 213 -2 254 -16
280 -46 83 -86 94 -331 95 l-197 0 -3 423 -3 422 -28 60 c-36 76 -110 147
-183 175 -52 19 -76 20 -419 20 l-364 0 -3 268 c-3 260 -4 268 -27 305 -36 58
-83 77 -191 77 l-90 0 0 165 0 165 -60 0 -60 0 0 -165z m250 -660 l0 -325 433
0 c429 0 433 0 477 -22 24 -13 53 -36 64 -51 21 -28 21 -35 23 -1220 l3 -1192
-23 -39 c-12 -21 -38 -47 -57 -57 -33 -18 -82 -19 -1110 -19 -1028 0 -1077 1
-1110 19 -19 10 -45 36 -57 57 l-23 39 3 1192 c2 1185 2 1192 23 1220 11 15
40 38 64 51 44 22 48 22 477 22 l433 0 0 325 0 325 190 0 190 0 0 -325z
m-1560 -1630 l0 -195 -185 0 -185 0 0 195 0 195 185 0 185 0 0 -195z m3110 0
l0 -195 -185 0 -185 0 0 195 0 195 185 0 185 0 0 -195z"/>
<path d="M2597 4235 c-47 -16 -81 -46 -101 -90 -14 -28 -16 -85 -16 -358 0
-206 4 -336 11 -354 5 -15 22 -41 37 -57 49 -52 71 -56 324 -56 223 0 235 1
273 23 22 12 50 38 62 56 23 34 23 36 23 378 0 368 -1 372 -52 420 -51 48 -83
53 -310 53 -154 -1 -224 -5 -251 -15z m443 -455 l0 -290 -190 0 -190 0 0 290
0 290 190 0 190 0 0 -290z"/>
<path d="M4065 4046 c-37 -16 -70 -52 -84 -89 -7 -17 -11 -123 -11 -270 0
-274 7 -305 72 -345 33 -20 49 -22 205 -22 160 0 172 1 204 23 65 43 69 62 69
345 0 234 -2 256 -20 292 -35 68 -72 80 -252 80 -105 -1 -162 -5 -183 -14z
m275 -361 l0 -195 -95 0 -95 0 0 195 0 195 95 0 95 0 0 -195z"/>
<path d="M2597 3106 c-47 -17 -81 -47 -101 -91 -14 -28 -16 -85 -16 -362 0
-367 3 -386 71 -434 l34 -24 916 0 916 0 35 27 c66 51 69 70 66 449 l-3 336
-28 36 c-59 77 12 72 -972 74 -728 2 -887 0 -918 -11z m1743 -281 l0 -115
-840 0 -840 0 0 115 0 115 840 0 840 0 0 -115z m0 -350 l0 -115 -840 0 -840 0
0 115 0 115 840 0 840 0 0 -115z"/>
<path d="M89 3462 l-54 -49 92 -99 c50 -55 117 -124 148 -154 l56 -55 93 96
94 97 93 -94 94 -94 92 92 93 93 93 -93 92 -92 93 92 92 93 92 -92 93 -92 53
45 c28 25 52 51 52 58 0 6 -65 76 -145 156 l-145 145 -93 -93 -92 -92 -93 92
-92 93 -96 -95 -96 -95 -89 95 -90 94 -94 -94 -95 -95 -93 93 -94 94 -54 -50z"/>
<path d="M5496 3271 l-49 -50 31 -38 c17 -21 82 -89 144 -151 l113 -112 95 95
95 95 96 -96 96 -96 89 96 89 96 95 -95 95 -95 92 92 93 93 93 -93 93 -92 54
55 55 55 -148 148 -147 147 -93 -93 -92 -92 -93 92 -92 93 -95 -95 -95 -95
-96 95 -96 95 -89 -95 -89 -95 -93 93 c-51 50 -95 92 -98 92 -2 0 -27 -22 -53
-49z"/>
<path d="M3227 1489 c-55 -29 -91 -89 -91 -152 -1 -30 7 -67 17 -87 9 -19 91
-109 182 -200 l165 -165 165 165 c91 91 173 181 182 200 58 117 -29 260 -157
260 -53 0 -99 -20 -149 -65 l-41 -37 -41 37 c-75 67 -158 83 -232 44z"/>
</g>
</svg>
