<?xml version="1.0" standalone="no"?>
<!DOCTYPE svg PUBLIC "-//W3C//DTD SVG 20010904//EN"
 "http://www.w3.org/TR/2001/REC-SVG-20010904/DTD/svg10.dtd">
<svg version="1.0" xmlns="http://www.w3.org/2000/svg"
 width="700.000000pt" height="700.000000pt" viewBox="0 0 700.000000 700.000000"
 preserveAspectRatio="xMidYMid meet">
<metadata>
Created by potrace 1.11, written by Peter Selinger 2001-2013
</metadata>
<g transform="translate(0.000000,700.000000) scale(0.100000,-0.100000)"
fill="#000000" stroke="none">
<path d="M3428 6077 c-64 -32 -93 -131 -58 -197 29 -55 106 -84 177 -66 35 8
92 66 94 94 1 9 2 30 3 45 5 47 -30 103 -78 127 -49 23 -86 23 -138 -3z"/>
<path d="M3449 5608 c0 -35 -1 -109 -1 -165 1 -99 0 -103 -21 -103 -163 -3
-185 -6 -219 -32 -67 -51 -71 -72 -72 -358 l-1 -255 -375 -5 -375 -5 -56 -27
c-74 -37 -125 -90 -163 -168 l-30 -65 -2 -415 c-1 -228 -2 -418 -3 -421 -1 -3
-95 -6 -210 -6 -198 0 -211 -2 -249 -23 -23 -13 -49 -39 -62 -62 -22 -39 -23
-49 -22 -284 1 -252 3 -265 46 -312 41 -46 74 -52 292 -52 112 0 205 -3 205
-7 1 -5 3 -190 4 -413 1 -223 5 -416 9 -430 23 -96 98 -183 195 -228 l56 -26
1080 -1 c779 -1 1094 2 1131 10 110 25 204 110 240 217 16 47 18 98 20 458 1
223 2 408 3 412 0 4 99 8 219 10 l219 3 37 29 c64 48 68 70 68 338 0 226 -1
239 -22 276 -13 23 -40 49 -62 62 -38 21 -51 23 -252 23 l-211 0 1 391 c1 217
-3 413 -9 441 -21 108 -87 194 -186 243 l-56 27 -376 5 -375 5 -1 250 c0 170
-4 262 -12 287 -12 36 -69 97 -94 99 -30 4 -97 7 -150 8 l-57 1 1 143 c1 208
7 187 -51 187 l-50 0 -1 -62z m246 -763 l0 -320 428 -1 c369 -2 434 -4 471
-18 45 -17 76 -51 93 -101 7 -20 10 -424 10 -1192 0 -1078 -1 -1166 -17 -1201
-21 -46 -60 -79 -109 -91 -21 -6 -472 -9 -1081 -9 -974 0 -1048 1 -1085 18
-22 9 -48 26 -57 36 -47 53 -46 18 -46 1239 0 717 4 1165 10 1191 11 46 44 86
90 110 27 14 84 16 452 16 232 0 428 2 437 4 14 4 15 40 14 312 -1 169 1 313
3 320 3 10 48 12 195 10 l192 -3 0 -320z m-1564 -1445 c1 -8 2 -97 3 -198 1
-176 0 -182 -19 -183 -27 -1 -326 -1 -345 0 -13 1 -15 28 -15 189 0 103 3 192
7 197 4 6 77 10 187 10 154 0 181 -2 182 -15z m3104 11 c12 -1 14 -375 3 -386
-5 -6 -231 -9 -348 -6 l-25 1 1 183 c1 100 2 189 3 197 1 13 27 15 179 14 97
-1 182 -2 187 -3z"/>
<path d="M2620 4239 c-45 -10 -98 -49 -117 -89 -15 -31 -17 -75 -18 -359 0
-335 3 -370 42 -413 44 -50 78 -56 327 -54 260 1 280 6 326 73 l25 37 0 351 0
352 -27 35 c-49 64 -74 70 -314 72 -117 0 -227 -2 -244 -5z m415 -171 c6 -5
10 -387 6 -545 l-1 -33 -194 0 -194 0 0 287 c-1 157 0 289 2 292 6 8 373 7
381 -1z"/>
<path d="M4056 4036 c-76 -39 -81 -57 -81 -336 -1 -135 3 -258 8 -275 13 -40
54 -82 91 -94 17 -6 101 -9 186 -8 134 2 159 5 188 22 63 38 67 61 66 340 -1
138 -2 258 -3 267 -2 24 -50 78 -80 90 -14 6 -95 12 -180 12 -138 2 -159 0
-195 -18z m291 -347 l1 -199 -103 0 -102 0 -1 198 0 199 103 0 102 1 0 -199z"/>
<path d="M2635 3109 c-62 -8 -95 -29 -130 -83 -18 -27 -20 -52 -20 -360 -1
-182 3 -344 8 -361 14 -42 65 -94 107 -106 23 -6 338 -9 921 -7 l885 3 37 25
c70 48 73 65 72 442 -1 324 -1 334 -22 369 -12 19 -40 45 -63 58 l-41 23 -857
1 c-471 1 -875 0 -897 -4z m1711 -285 l0 -121 -845 1 -846 1 -2 110 c-2 61 -1
115 1 120 2 7 290 10 847 10 l844 0 1 -121z m1 -346 l1 -118 -26 -1 c-40 -1
-1634 -1 -1653 0 -14 1 -16 18 -18 112 0 61 1 114 4 118 2 4 384 7 847 7 l843
-1 2 -117z"/>
<path d="M92 3457 l-52 -52 138 -137 c75 -76 141 -141 145 -145 4 -4 49 34
100 85 l92 92 90 -90 c49 -49 93 -90 97 -90 4 0 48 41 98 91 l90 91 88 -91
c48 -50 92 -91 97 -91 4 0 49 41 98 91 l91 90 89 -91 c50 -50 93 -89 97 -88 4
2 29 22 55 46 38 36 44 46 34 58 -50 60 -269 275 -278 273 -6 -2 -50 -43 -99
-91 l-88 -88 -92 95 -92 94 -93 -94 -94 -94 -94 95 -93 94 -93 -94 -92 -94
-94 94 -93 94 -52 -53z"/>
<path d="M5501 3269 c-28 -29 -50 -54 -48 -55 22 -27 282 -284 287 -284 3 0
46 41 95 91 l88 90 93 -92 c51 -51 96 -91 98 -88 3 2 45 44 94 92 l89 88 92
-92 c105 -105 83 -107 204 16 l78 80 90 -93 c100 -103 95 -102 161 -34 l38 38
-145 148 -145 148 -94 -96 -93 -95 -93 95 -93 96 -89 -91 c-49 -50 -92 -91
-96 -91 -4 0 -47 41 -97 90 l-90 90 -93 -93 -94 -94 -93 94 -93 95 -51 -53z"/>
<path d="M3255 1500 c-37 -12 -79 -50 -101 -92 -21 -40 -21 -116 -1 -154 9
-16 90 -105 181 -197 l165 -169 167 169 c163 164 203 218 198 265 -1 13 -3 32
-3 43 -2 35 -53 104 -91 122 -45 22 -117 25 -155 6 -16 -8 -49 -34 -73 -57
l-43 -41 -22 25 c-64 74 -147 103 -222 80z"/>
</g>
</svg>
